# xmcd
#
# Track frame offsets:
#	150
#	27848
#	56670
#	74666
#	93980
#	120708
#	146766
#	174132
#	191362
#	209530
#
# Disc length: 3170 seconds
#
# Revision: 14
# Processed by: cddbd v1.5.2PL0 Copyright (c) Steve Scherf et al.
# Submitted via: Jack! The Knife 20 Magnifico
#
DISCID=8f0c600a
DTITLE=Quiet Riot - Terrified
DYEAR=1993
DGENRE=Hard Rock
TTITLE0=Cold Day In Hell
TTITLE1=Loaded Gun
TTITLE2=Itchycoo Park
TTITLE3=Terrified
TTITLE4=Rude Boy
TTITLE5=Dirty Lover
TTITLE6=Psycho City
TTITLE7=Rude, Crude Mood
TTITLE8=Little Angel
TTITLE9=Resurrection
EXTD=Kevin DuBrow and Ricky DeLena
EXTT0=DuBrow, Cavazo, Hillery, Banali
EXTT1=DuBrow, Cavazo
EXTT2=Lane, Marriott
EXTT3=Arkenstone
EXTT4=DuBrow, Manning
EXTT5=Kevin DuBrow
EXTT6=DuBrow, Manning
EXTT7=DuBrow, Mann-Dude, Paris
EXTT8=Arkenstone, Priest
EXTT9=Carlos Cavazo
PLAYORDER=
